<svg width="76" height="68" viewBox="0 0 76 68" fill="none" xmlns="http://www.w3.org/2000/svg">
<path d="M75.0167 67.0667L50.1717 59.67L25.8267 66.9183L0.983398 59.5217V0.933319L25.8284 8.32999L50.1734 1.08165L75.0167 8.47832V67.0667ZM1.9834 58.775L25.8284 65.875L50.1734 58.6267L74.0184 65.725V9.22499L50.1734 2.12499L25.8284 9.37332L1.9834 2.27499V58.775Z" fill="#94D1BE" stroke="#94D1BE"/>
<path d="M75.0167 43.2467L74.1301 42.1583C74.0567 42.0683 73.9901 41.9883 73.9217 41.91C73.7117 41.6717 73.4451 41.4783 73.1617 41.275C72.8667 41.0633 72.5617 40.8433 72.2901 40.55C71.7617 39.9767 71.4134 39.38 71.2551 38.775C71.0801 38.1067 71.1884 37.5817 71.3251 37.0583C71.4617 36.53 71.4251 36.1267 71.2117 35.86C70.8717 35.435 70.1101 35.3617 69.8684 35.37C68.6034 35.4117 67.8167 35.295 66.7701 34.5233C66.0817 34.0167 64.7067 34.3383 63.9034 34.9433C61.7134 36.5917 59.7651 36.5517 58.5167 36.2267C57.3434 35.9217 56.5617 35.3183 56.3501 35.14C54.4767 34.18 53.2084 32.595 52.7751 30.6717C52.6217 29.9883 52.5651 29.2583 52.6084 28.5017C52.6617 27.5483 52.8351 27.1683 53.4034 26.3567C53.4734 26.2567 53.6251 26.0167 53.5367 25.925C53.5017 25.8883 53.4401 25.8633 53.3717 25.8583C52.6551 25.8017 52.3717 25.4567 52.2601 25.1783C52.0901 24.7517 52.0517 23.9733 53.6951 22.14C54.2801 21.4883 54.9401 20.8317 55.8367 20.015C55.9434 19.9183 56.0567 19.8267 56.1667 19.7383C56.3401 19.6 56.5201 19.455 56.6334 19.3167C56.8951 18.995 57.0517 18.4617 57.1917 17.99L57.2334 17.85C57.3867 17.3383 57.6067 16.8883 57.8901 16.5167C58.3567 15.9017 59.0251 15.4467 59.8234 15.2033C60.5717 14.9733 61.2551 15.0117 61.9167 15.0467C62.0634 15.055 62.2134 15.0633 62.3651 15.0683C63.0851 15.095 64.4451 15.0067 65.4734 14.1483C65.5284 14.1017 65.5867 14.0533 65.6451 14.0033C66.4317 13.3367 67.7484 12.2183 69.0651 13.305C69.5417 13.6983 69.7551 14.235 69.9417 14.7083C70.1067 15.1267 70.2617 15.5217 70.5767 15.7817C71.1251 16.2367 71.8151 16.4817 72.5734 16.485C73.2151 16.4967 73.8517 16.375 74.3217 16.17L75.0217 15.865V43.2467H75.0167ZM69.8817 34.3683C70.1317 34.3683 71.3384 34.4117 71.9951 35.235C72.4151 35.7617 72.5167 36.4583 72.2951 37.31C72.1667 37.8017 72.1217 38.1233 72.2251 38.5233C72.3401 38.9667 72.6101 39.4217 73.0267 39.8717C73.2284 40.09 73.4801 40.2717 73.7467 40.4633C73.8367 40.5283 73.9284 40.5933 74.0184 40.6617V17.32C73.4367 17.4633 72.8901 17.4867 72.5634 17.485C71.5717 17.4783 70.6634 17.155 69.9351 16.55C69.4234 16.125 69.2034 15.5667 69.0084 15.0733C68.8451 14.66 68.7051 14.3033 68.4267 14.0733C67.8551 13.6017 67.2834 13.92 66.2901 14.7633C66.2301 14.815 66.1701 14.865 66.1117 14.9133C65.1601 15.7083 63.8167 16.1167 62.3267 16.065C62.1684 16.06 62.0117 16.0517 61.8584 16.0433C61.2317 16.0083 60.6901 15.98 60.1134 16.1567C59.5167 16.34 59.0234 16.6717 58.6834 17.12C58.4734 17.3967 58.3067 17.7383 58.1884 18.135L58.1484 18.2717C57.9834 18.8317 57.7951 19.4683 57.4067 19.945C57.2267 20.1667 57.0051 20.345 56.7901 20.5167C56.6867 20.5983 56.5901 20.6767 56.5084 20.7517C55.6384 21.545 54.9984 22.1783 54.4384 22.805C53.3001 24.075 53.1501 24.6867 53.1867 24.8033C53.1901 24.805 53.2551 24.845 53.4484 24.86C53.7617 24.885 54.0484 25.0167 54.2551 25.2317C54.4567 25.44 54.8551 26.0233 54.2201 26.93C53.7434 27.6117 53.6467 27.81 53.6034 28.5583C53.5651 29.2217 53.6151 29.86 53.7484 30.4517C54.1184 32.0967 55.2217 33.455 56.8534 34.275L56.9151 34.3067L56.9667 34.3533C57.0784 34.4533 59.7667 36.8083 63.3017 34.145C64.2551 33.4267 66.1451 32.8217 67.3634 33.7183C68.1784 34.3183 68.6951 34.4067 69.8367 34.3717C69.8417 34.37 69.8567 34.3683 69.8817 34.3683Z" fill="#94D1BE" stroke="#94D1BE"/>
<path d="M62.3218 30.8583L61.9668 30.5C61.7702 30.3017 57.1585 25.5933 57.4802 21.76C57.5818 20.5367 58.1668 19.5333 59.2152 18.7783C61.0452 17.4617 63.6002 17.4617 65.4302 18.7783C66.4785 19.5333 67.0635 20.5367 67.1652 21.76C67.4852 25.5933 62.8735 30.3017 62.6785 30.5L62.3218 30.8583ZM62.3218 18.7867C61.4318 18.7867 60.5402 19.0533 59.7985 19.5883C58.9868 20.1717 58.5552 20.9083 58.4768 21.8417C58.2418 24.645 61.2668 28.25 62.3235 29.415C63.3785 28.25 66.4052 24.645 66.1702 21.8417C66.0918 20.91 65.6602 20.1733 64.8485 19.5883C64.1035 19.055 63.2118 18.7867 62.3218 18.7867ZM62.3218 25.0733C60.9852 25.0733 59.8968 23.985 59.8968 22.6483C59.8968 21.31 60.9852 20.2233 62.3218 20.2233C63.6585 20.2233 64.7468 21.3117 64.7468 22.6483C64.7485 23.9867 63.6602 25.0733 62.3218 25.0733ZM62.3218 21.2233C61.5352 21.2233 60.8968 21.8633 60.8968 22.6483C60.8968 23.435 61.5368 24.0733 62.3218 24.0733C63.1068 24.0733 63.7468 23.4333 63.7468 22.6483C63.7485 21.8617 63.1085 21.2233 62.3218 21.2233Z" fill="#94D1BE" stroke="#94D1BE"/>
<path d="M50.6716 1.60333H49.6716V59.1483H50.6716V1.60333Z" fill="#94D1BE" stroke="#94D1BE"/>
<path d="M65.8683 10.715C64.58 10.715 63.4783 10.405 62.6083 9.78666C62.0533 9.39166 61.5883 8.82166 61.2617 8.13832C60.7883 7.14499 59.6617 5.58832 57.4367 6.32666C57.335 6.35999 55.04 7.07666 53.49 5.89999C52.56 5.19332 52.12 3.99332 52.185 2.33166L52.21 1.68832L73.6467 8.06999L72.655 8.65166C72.59 8.68999 71.0583 9.58332 69.075 10.185C67.9117 10.5383 66.8367 10.715 65.8683 10.715ZM58.55 5.12999C60.7383 5.12999 61.8417 7.03166 62.1633 7.70832C62.415 8.23832 62.77 8.67499 63.185 8.97166C65.4733 10.5967 69.2217 9.20499 71.06 8.34666L53.1883 3.02332C53.2483 3.99499 53.5517 4.69166 54.0933 5.10332C55.2167 5.95499 57.1067 5.38166 57.125 5.37666C57.6433 5.20332 58.1183 5.12999 58.55 5.12999Z" fill="#94D1BE" stroke="#94D1BE"/>
<path d="M43.5817 46.4117C43.7651 46.1933 43.9734 45.945 44.1484 45.6417C44.6284 44.8117 44.8001 43.95 44.6467 43.1483C44.2551 41.105 42.1901 39.8233 40.4367 38.9333C38.9467 38.1783 36.7051 37.1583 34.4517 37.0333C33.7817 36.9967 33.2667 36.9483 32.7867 36.8767C29.7934 36.4333 27.6217 35.1217 26.3267 32.98C26.3051 32.9433 26.2801 32.9083 26.2584 32.87L26.2167 32.8C26.1734 32.7267 26.1317 32.655 26.0917 32.5783C25.8801 32.1783 25.6251 31.6967 25.3267 31.1967C24.3484 29.5567 22.8967 27.71 20.9167 27.8083C19.3384 27.8867 18.4301 29.2833 17.8867 30.1167C17.4534 30.7817 16.8284 31.0883 15.7951 31.1417C15.3234 31.1667 14.8784 31.0433 14.5067 30.7883C14.2217 30.5917 13.9584 30.3033 13.7467 29.955C13.5751 29.6733 13.6134 29.4983 13.6901 29.1517C13.7401 28.9267 13.8017 28.6467 13.7917 28.3117C13.7784 27.8667 13.6451 27.4433 13.3967 27.05C13.1451 26.6533 12.7817 26.305 12.4001 26.0917C12.3084 26.0417 12.2101 25.9917 12.1084 25.94C11.7684 25.77 11.4184 25.5933 11.3317 25.34C11.2784 25.1833 11.3617 24.9467 11.4501 24.6983C11.4801 24.6133 11.5101 24.5283 11.5367 24.4433L11.5517 24.3933C11.7401 23.79 12.0234 22.8783 11.5301 22.375C11.3467 22.1883 10.9984 22.005 10.3751 22.1867C9.78173 22.36 9.31006 22.685 8.85506 22.9983C8.38006 23.325 7.93173 23.6333 7.40673 23.7117C6.53673 23.8417 5.86507 23.7283 5.5634 23.3983C5.34673 23.1617 5.30173 22.7767 5.42673 22.2533C5.63173 21.4 6.07173 20.4733 6.57673 19.835C7.59673 18.545 8.67006 17.8783 9.76506 17.8517C11.3351 17.8133 12.4901 19.1183 12.5051 19.1367C13.6234 20.3983 14.5434 20.87 15.3184 20.575C16.4567 20.1433 16.5634 18.2583 16.5717 17.7367C17.5201 14.0867 21.3334 12.715 21.5701 12.6333C23.2251 12.2017 24.4334 11.14 25.3267 10.1783C25.6034 9.87999 25.8501 9.59165 26.0701 9.33332L26.3267 9.03332L26.7084 8.58832L0.983398 0.933319V26.675L1.40173 26.745C2.25173 26.8867 3.08673 26.895 3.8934 26.9017C5.19007 26.9133 6.41506 26.925 7.60673 27.4733C8.55173 27.9067 9.23507 28.22 9.85173 29.035C10.0417 29.2867 10.2017 29.57 10.3701 29.87C10.5434 30.18 10.7234 30.4983 10.9484 30.8C11.4951 31.5317 12.3934 32.535 13.5751 33.155L13.6284 33.18C14.4667 33.5017 15.4884 34.05 15.5917 34.8433C15.7167 35.8083 14.5067 36.9067 14.0317 37.25L14.0067 37.2683C12.2367 38.7066 11.4301 40.2783 11.6134 41.9383C12.0234 45.6767 17.3734 48.3933 17.6001 48.5067L17.6401 48.525C19.1634 49.1267 20.1284 49.8917 20.4317 50.7367C20.6901 51.4567 20.3901 52.0117 20.3801 52.03L20.3551 52.0717L20.3384 52.1183C19.9167 53.34 19.9417 54.6383 20.4067 55.7733C20.5851 56.2067 20.8334 56.5267 21.0734 56.835C21.1917 56.9867 21.3017 57.13 21.4051 57.2833C21.6584 57.6683 21.8467 58.3217 21.8851 58.95C21.9017 59.2333 21.8217 59.4233 21.7084 59.6867C21.6217 59.89 21.5234 60.1183 21.4684 60.41C21.2134 61.7583 21.6534 63.2817 22.6451 64.485C22.9551 64.86 23.2117 65.37 23.3884 65.9566L23.4667 66.215L25.8301 66.9183L29.7134 65.7617L29.8117 65.5816C29.9484 65.3333 30.1284 65.1033 30.3351 64.9183C30.6084 64.6717 30.9717 64.5267 31.3584 64.3717C31.5634 64.29 31.7751 64.205 31.9834 64.1C32.5284 63.8283 33.0001 63.4783 33.4584 63.1417C33.5834 63.0483 33.7101 62.9567 33.8367 62.865C34.4201 62.4467 34.9167 62.0333 35.3567 61.6033C36.1601 60.8167 36.7217 60.035 37.0734 59.2133C37.3284 58.6167 37.4584 58.0017 37.4717 57.3316C37.4784 57.005 37.4501 56.6817 37.4234 56.3683C37.3401 55.42 37.3184 54.8133 37.8651 54.3067C38.1651 54.0283 38.8784 54.0267 39.5084 54.025C39.9317 54.0233 40.3317 54.0233 40.6867 53.9517C42.1534 53.655 43.1201 52.9483 43.4801 51.91C43.8167 50.9383 43.5217 50.0517 43.2601 49.27C43.0484 48.6367 42.8484 48.0383 42.9801 47.4433C43.0667 47.0267 43.2951 46.755 43.5817 46.4117ZM42.8167 45.77C42.5017 46.1467 42.1434 46.5733 42.0001 47.2283C41.8101 48.0917 42.0751 48.885 42.3084 49.5867C42.5501 50.3083 42.7584 50.9333 42.5317 51.5833C42.2901 52.2783 41.6017 52.7467 40.4851 52.9716C40.2284 53.0233 39.8751 53.025 39.5034 53.025C38.6901 53.0267 37.7684 53.03 37.1834 53.5733C36.2484 54.44 36.3417 55.5117 36.4251 56.4566C36.4517 56.7567 36.4767 57.04 36.4701 57.3117C36.4584 57.8517 36.3551 58.345 36.1517 58.82C35.8534 59.5183 35.3634 60.195 34.6551 60.8883C34.2517 61.2817 33.7934 61.6633 33.2517 62.0517C33.1201 62.145 32.9917 62.2416 32.8617 62.3367C32.4201 62.6633 32.0017 62.9717 31.5367 63.205C31.3634 63.2917 31.1801 63.365 30.9851 63.4433C30.5351 63.6233 30.0717 63.81 29.6651 64.175C29.4284 64.3883 29.2151 64.6417 29.0417 64.9167L26.3284 65.725L25.8284 65.8733L25.3284 65.725L24.2617 65.4067C24.0517 64.8017 23.7617 64.2667 23.4167 63.8483C22.6234 62.8867 22.2534 61.64 22.4517 60.595C22.4867 60.4133 22.5517 60.26 22.6284 60.0816C22.7634 59.7667 22.9167 59.41 22.8851 58.8883C22.8667 58.5833 22.7651 57.5267 22.2417 56.7333C22.1184 56.545 21.9901 56.38 21.8651 56.22C21.6484 55.94 21.4601 55.7 21.3334 55.3933C20.9651 54.4933 20.9434 53.46 21.2734 52.4783C21.3817 52.2617 21.7351 51.44 21.3851 50.4267C20.9884 49.2783 19.8601 48.3283 18.0317 47.6017C17.7017 47.4333 12.9501 44.935 12.6084 41.8283C12.4667 40.5317 13.1451 39.2617 14.6284 38.0533C14.8317 37.905 16.8034 36.4183 16.5851 34.7183C16.4534 33.6933 15.5901 32.865 14.0151 32.2567C13.2317 31.8383 12.4284 31.11 11.7501 30.2017C11.5634 29.9517 11.4067 29.6733 11.2417 29.3783C11.0634 29.0633 10.8801 28.7367 10.6501 28.43C9.88173 27.4133 9.02173 27.0183 8.02507 26.5617C6.6384 25.9233 5.2484 25.9117 3.9034 25.8983C3.27173 25.8933 2.6234 25.8867 1.98507 25.8133V2.27165L24.9484 9.10832C24.1084 10.0667 22.9267 11.2533 21.3067 11.67L21.2767 11.6783C21.0901 11.7383 16.6751 13.2133 15.5901 17.5517L15.5751 17.6117V17.6733C15.5734 18.4033 15.3617 19.4933 14.9667 19.6417C14.7217 19.7333 14.1434 19.4767 13.2617 18.48C13.2034 18.4133 11.8367 16.8533 9.83673 16.8533C9.81006 16.8533 9.7834 16.8533 9.75673 16.855C8.34507 16.885 7.0134 17.68 5.79673 19.2183C5.1984 19.975 4.6984 21.0233 4.4584 22.0233C4.20007 23.1033 4.5184 23.7367 4.83007 24.0767C5.3684 24.6633 6.33673 24.885 7.5584 24.7033C8.31173 24.59 8.8784 24.2017 9.42507 23.825C9.8334 23.5433 10.2201 23.2783 10.6584 23.15C10.7267 23.13 10.7751 23.1217 10.8101 23.1167C10.8217 23.2783 10.7517 23.6083 10.5984 24.0983L10.5817 24.15C10.5601 24.2217 10.5334 24.295 10.5084 24.3667C10.3801 24.7283 10.2217 25.1783 10.3867 25.6633C10.6051 26.3067 11.2167 26.6133 11.6634 26.8367C11.7517 26.8817 11.8384 26.925 11.9184 26.9683C12.1551 27.1 12.3934 27.3317 12.5567 27.5883C12.7084 27.8267 12.7884 28.0817 12.7967 28.3433C12.8034 28.5533 12.7617 28.74 12.7184 28.9367C12.6284 29.3433 12.5151 29.85 12.8967 30.4767C13.1867 30.9517 13.5384 31.3333 13.9434 31.6133C14.4984 31.995 15.1584 32.1783 15.8517 32.1433C16.7034 32.0983 17.9267 31.8967 18.7284 30.665C19.3467 29.715 19.9834 28.8583 20.9701 28.81C22.9151 28.71 24.4101 31.5333 25.2117 33.05C25.2501 33.1217 25.2901 33.19 25.3301 33.2583C25.3401 33.275 25.3501 33.2933 25.3601 33.31L25.3984 33.3767C25.6734 33.8483 25.9851 34.2833 26.3301 34.685C27.8051 36.395 29.9217 37.4633 32.6434 37.8667C33.1567 37.9433 33.6984 37.9933 34.4001 38.0333C36.4651 38.1483 38.5784 39.1117 39.9884 39.8267C41.5384 40.6133 43.3584 41.7217 43.6684 43.3383C43.8051 44.0467 43.5367 44.71 43.2867 45.1417C43.1517 45.37 42.9884 45.5633 42.8167 45.77Z" fill="#94D1BE" stroke="#94D1BE"/>
<path d="M31.1884 48.1267C31.0868 46.9033 30.5018 45.9 29.4534 45.145C28.5334 44.4833 27.4301 44.155 26.3284 44.1583C25.9934 44.16 25.6584 44.195 25.3284 44.2567C24.5851 44.3983 23.8684 44.6917 23.2384 45.145C22.1901 45.9 21.6051 46.9033 21.5034 48.1267C21.2534 51.1233 24.0168 54.655 25.3284 56.1483C25.6951 56.565 25.9484 56.8233 25.9918 56.8667L26.3284 57.2083L26.3468 57.2266L26.7018 56.8683C26.8968 56.6683 31.5084 51.96 31.1884 48.1267ZM26.3451 55.7833C26.3401 55.7767 26.3334 55.77 26.3268 55.7633C26.0768 55.4866 25.7218 55.0783 25.3268 54.58C24.0334 52.9467 22.3184 50.3467 22.4984 48.21C22.5768 47.2783 23.0084 46.5416 23.8201 45.9566C24.2784 45.6266 24.7918 45.4 25.3268 45.2733C25.6551 45.195 25.9901 45.1566 26.3268 45.155C26.3334 45.155 26.3384 45.155 26.3451 45.155C27.2351 45.155 28.1268 45.4216 28.8684 45.9566C29.6801 46.54 30.1118 47.2767 30.1901 48.21C30.4268 51.0133 27.4018 54.6183 26.3451 55.7833Z" fill="#94D1BE" stroke="#94D1BE"/>
<path d="M26.3451 46.59C26.3385 46.59 26.3335 46.5917 26.3268 46.5917C25.9701 46.595 25.6318 46.6767 25.3268 46.8183C24.4968 47.2033 23.9185 48.0433 23.9185 49.0167C23.9185 49.99 24.4968 50.83 25.3268 51.215C25.6318 51.3567 25.9701 51.4383 26.3268 51.4417C26.3335 51.4417 26.3385 51.4433 26.3451 51.4433C27.6835 51.4433 28.7701 50.355 28.7701 49.0183C28.7701 47.6817 27.6835 46.59 26.3451 46.59ZM26.3451 50.4417C26.3385 50.4417 26.3335 50.44 26.3268 50.44C25.9351 50.435 25.5818 50.2717 25.3268 50.0117C25.0751 49.755 24.9185 49.4033 24.9185 49.015C24.9185 48.6267 25.0751 48.2767 25.3268 48.0183C25.5818 47.7583 25.9351 47.595 26.3268 47.59C26.3335 47.59 26.3385 47.5883 26.3451 47.5883C27.1318 47.5883 27.7701 48.2283 27.7701 49.0133C27.7701 49.7983 27.1318 50.4417 26.3451 50.4417Z" fill="#94D1BE" stroke="#94D1BE"/>
<path d="M25.3284 9.03665V10.18V31.2C25.6267 31.7 25.8817 32.1817 26.0934 32.5817C26.1334 32.6583 26.1767 32.73 26.2184 32.8033L26.26 32.8733C26.2817 32.91 26.3067 32.945 26.3284 32.9833V9.03665H25.3284Z" fill="#94D1BE" stroke="#94D1BE"/>
</svg>
